<svg xmlns="http://www.w3.org/2000/svg" viewBox="0 0 400 450" style="max-width:300px;">
  <!-- India outline simplified -->
  <g id="india-map">
    <!-- Jammu & Kashmir -->
    <path d="M150,20 L180,15 L200,25 L210,45 L195,55 L175,50 L160,40 Z" data-state="JK"/>
    <!-- Himachal Pradesh -->
    <path d="M175,50 L195,55 L200,65 L185,70 L170,60 Z" data-state="HP"/>
    <!-- Punjab -->
    <path d="M155,55 L175,50 L170,60 L185,70 L175,80 L155,75 Z" data-state="PB"/>
    <!-- Uttarakhand -->
    <path d="M200,55 L220,50 L230,60 L220,75 L200,70 Z" data-state="UK"/>
    <!-- Haryana -->
    <path d="M155,75 L175,80 L180,95 L165,100 L150,90 Z" data-state="HR"/>
    <!-- Delhi -->
    <path d="M170,90 L178,88 L180,95 L172,97 Z" data-state="DL"/>
    <!-- Rajasthan -->
    <path d="M100,80 L155,75 L150,90 L165,100 L160,130 L140,150 L95,140 L85,110 Z" data-state="RJ"/>
    <!-- Uttar Pradesh -->
    <path d="M180,95 L185,70 L200,70 L230,75 L260,90 L270,110 L250,120 L220,115 L190,120 L175,110 Z" data-state="UP"/>
    <!-- Gujarat -->
    <path d="M60,130 L95,140 L100,160 L110,180 L95,200 L70,195 L55,170 L50,150 Z" data-state="GJ"/>
    <!-- Madhya Pradesh -->
    <path d="M140,150 L160,130 L190,120 L220,115 L240,130 L235,160 L210,175 L170,180 L145,170 Z" data-state="MP"/>
    <!-- Maharashtra -->
    <path d="M95,200 L110,180 L145,170 L170,180 L210,175 L220,200 L210,230 L180,250 L140,245 L110,230 L95,210 Z" data-state="MH"/>
    <!-- Bihar -->
    <path d="M270,110 L300,105 L315,115 L305,130 L280,125 L265,120 Z" data-state="BR"/>
    <!-- West Bengal -->
    <path d="M305,130 L320,120 L330,140 L325,170 L310,190 L295,175 L290,150 Z" data-state="WB"/>
    <!-- Odisha -->
    <path d="M250,170 L280,160 L295,175 L310,190 L300,210 L270,215 L250,200 Z" data-state="OD"/>
    <!-- Chhattisgarh -->
    <path d="M235,160 L260,155 L280,160 L270,180 L250,200 L240,185 L230,170 Z" data-state="CG"/>
    <!-- Jharkhand -->
    <path d="M280,125 L305,130 L295,150 L280,160 L260,155 L265,135 Z" data-state="JH"/>
    <!-- TELANGANA (ACTIVE - Vishnu) -->
    <path d="M170,230 L210,230 L220,250 L210,270 L180,275 L160,260 L155,240 Z" data-state="TS" class="active"/>
    <!-- Andhra Pradesh -->
    <path d="M180,275 L210,270 L240,260 L270,270 L280,300 L250,320 L210,310 L185,295 Z" data-state="AP"/>
    <!-- Karnataka -->
    <path d="M110,250 L140,245 L170,250 L180,275 L185,295 L170,320 L140,330 L115,310 L105,280 Z" data-state="KA"/>
    <!-- Tamil Nadu -->
    <path d="M170,320 L185,295 L210,310 L230,330 L220,360 L195,380 L170,370 L155,345 Z" data-state="TN"/>
    <!-- Kerala -->
    <path d="M115,310 L140,330 L155,345 L150,370 L140,390 L125,380 L115,350 L110,330 Z" data-state="KL"/>
    <!-- Goa -->
    <path d="M105,260 L115,255 L118,270 L108,275 Z" data-state="GA"/>
    <!-- Northeast (simplified) -->
    <path d="M320,90 L350,85 L365,95 L370,115 L355,125 L335,120 L320,110 Z" data-state="NE"/>
    <!-- Sri Lanka (reference) -->
    <path d="M185,395 L200,390 L210,400 L205,415 L190,420 L180,410 Z" style="fill:#1a1a35;stroke:#2a2a45;opacity:0.3" data-state="LK"/>
  </g>
  <!-- Pin on Telangana -->
  <text x="185" y="258" font-size="14" text-anchor="middle">📍</text>
  <!-- State label -->
  <text x="185" y="248" font-size="7" fill="#FFD700" text-anchor="middle" font-weight="bold">TS</text>
</svg>
